<mxfile host="65bd71144e">
    <diagram id="lDn-x31davE9-ltwUrlM" name="Page-1">
        <mxGraphModel dx="905" dy="676" grid="1" gridSize="10" guides="1" tooltips="1" connect="1" arrows="1" fold="1" page="1" pageScale="1" pageWidth="850" pageHeight="1100" math="0" shadow="0">
            <root>
                <mxCell id="0"/>
                <mxCell id="1" parent="0"/>
                <mxCell id="2" value="STM32" style="whiteSpace=wrap;html=1;aspect=fixed;" vertex="1" parent="1">
                    <mxGeometry x="365" y="220" width="120" height="120" as="geometry"/>
                </mxCell>
                <mxCell id="6" value="Rotary Encoder" style="rounded=0;whiteSpace=wrap;html=1;rotation=90;" vertex="1" parent="1">
                    <mxGeometry x="15" y="235" width="120" height="90" as="geometry"/>
                </mxCell>
                <mxCell id="34" style="edgeStyle=none;html=1;exitX=1;exitY=0.25;exitDx=0;exitDy=0;entryX=0;entryY=0.54;entryDx=0;entryDy=0;entryPerimeter=0;fontSize=11;endArrow=none;endFill=0;" edge="1" parent="1" source="2" target="32">
                    <mxGeometry relative="1" as="geometry"/>
                </mxCell>
                <mxCell id="36" value="D3" style="edgeLabel;html=1;align=center;verticalAlign=middle;resizable=0;points=[];fontSize=11;" vertex="1" connectable="0" parent="34">
                    <mxGeometry x="0.5218" y="-1" relative="1" as="geometry">
                        <mxPoint x="-72" y="10" as="offset"/>
                    </mxGeometry>
                </mxCell>
                <mxCell id="35" style="edgeStyle=none;html=1;exitX=1;exitY=0.75;exitDx=0;exitDy=0;entryX=0;entryY=0.54;entryDx=0;entryDy=0;entryPerimeter=0;fontSize=11;endArrow=none;endFill=0;" edge="1" parent="1" source="2" target="33">
                    <mxGeometry relative="1" as="geometry">
                        <Array as="points">
                            <mxPoint x="530" y="320"/>
                        </Array>
                    </mxGeometry>
                </mxCell>
                <mxCell id="37" value="D4" style="edgeLabel;html=1;align=center;verticalAlign=middle;resizable=0;points=[];fontSize=11;" vertex="1" connectable="0" parent="35">
                    <mxGeometry x="-0.1694" relative="1" as="geometry">
                        <mxPoint x="-46" y="-7" as="offset"/>
                    </mxGeometry>
                </mxCell>
                <mxCell id="19" style="edgeStyle=none;html=1;exitX=-0.019;exitY=0.122;exitDx=0;exitDy=0;entryX=0.122;entryY=-0.058;entryDx=0;entryDy=0;exitPerimeter=0;entryPerimeter=0;" edge="1" parent="1" source="2" target="6">
                    <mxGeometry relative="1" as="geometry">
                        <Array as="points"/>
                    </mxGeometry>
                </mxCell>
                <mxCell id="20" value="GND" style="edgeLabel;html=1;align=center;verticalAlign=middle;resizable=0;points=[];" vertex="1" connectable="0" parent="19">
                    <mxGeometry x="-0.2042" relative="1" as="geometry">
                        <mxPoint x="112" as="offset"/>
                    </mxGeometry>
                </mxCell>
                <mxCell id="28" value="GND" style="edgeLabel;html=1;align=center;verticalAlign=middle;resizable=0;points=[];" vertex="1" connectable="0" parent="19">
                    <mxGeometry x="0.738" y="-2" relative="1" as="geometry">
                        <mxPoint x="-47" as="offset"/>
                    </mxGeometry>
                </mxCell>
                <mxCell id="7" style="edgeStyle=none;html=1;exitX=0.014;exitY=0.333;exitDx=0;exitDy=0;entryX=0.328;entryY=-0.025;entryDx=0;entryDy=0;entryPerimeter=0;exitPerimeter=0;" edge="1" parent="1" source="2" target="6">
                    <mxGeometry relative="1" as="geometry"/>
                </mxCell>
                <mxCell id="14" value="3V3" style="edgeLabel;html=1;align=center;verticalAlign=middle;resizable=0;points=[];" vertex="1" connectable="0" parent="7">
                    <mxGeometry x="-0.6042" y="-2" relative="1" as="geometry">
                        <mxPoint x="61" y="2" as="offset"/>
                    </mxGeometry>
                </mxCell>
                <mxCell id="29" value="+" style="edgeLabel;html=1;align=center;verticalAlign=middle;resizable=0;points=[];fontSize=16;" vertex="1" connectable="0" parent="7">
                    <mxGeometry x="0.7621" y="-1" relative="1" as="geometry">
                        <mxPoint x="-42" as="offset"/>
                    </mxGeometry>
                </mxCell>
                <mxCell id="10" style="edgeStyle=none;html=1;exitX=0.003;exitY=0.606;exitDx=0;exitDy=0;entryX=0.606;entryY=-0.008;entryDx=0;entryDy=0;entryPerimeter=0;exitPerimeter=0;" edge="1" parent="1" source="2" target="6">
                    <mxGeometry relative="1" as="geometry"/>
                </mxCell>
                <mxCell id="16" value="A0" style="edgeLabel;html=1;align=center;verticalAlign=middle;resizable=0;points=[];" vertex="1" connectable="0" parent="10">
                    <mxGeometry x="-0.5625" y="-1" relative="1" as="geometry">
                        <mxPoint x="69" y="1" as="offset"/>
                    </mxGeometry>
                </mxCell>
                <mxCell id="30" value="DT" style="edgeLabel;html=1;align=center;verticalAlign=middle;resizable=0;points=[];fontSize=11;" vertex="1" connectable="0" parent="10">
                    <mxGeometry x="0.8315" y="-3" relative="1" as="geometry">
                        <mxPoint x="-31" as="offset"/>
                    </mxGeometry>
                </mxCell>
                <mxCell id="11" style="edgeStyle=none;html=1;exitX=0.008;exitY=0.872;exitDx=0;exitDy=0;entryX=0.872;entryY=-0.008;entryDx=0;entryDy=0;entryPerimeter=0;exitPerimeter=0;" edge="1" parent="1" source="2" target="6">
                    <mxGeometry relative="1" as="geometry"/>
                </mxCell>
                <mxCell id="17" value="A1" style="edgeLabel;html=1;align=center;verticalAlign=middle;resizable=0;points=[];" vertex="1" connectable="0" parent="11">
                    <mxGeometry x="-0.7708" y="-1" relative="1" as="geometry">
                        <mxPoint x="42" y="1" as="offset"/>
                    </mxGeometry>
                </mxCell>
                <mxCell id="31" value="CLK" style="edgeLabel;html=1;align=center;verticalAlign=middle;resizable=0;points=[];fontSize=11;" vertex="1" connectable="0" parent="11">
                    <mxGeometry x="0.7748" y="-1" relative="1" as="geometry">
                        <mxPoint x="-38" as="offset"/>
                    </mxGeometry>
                </mxCell>
                <mxCell id="32" value="" style="verticalLabelPosition=bottom;shadow=0;dashed=0;align=center;html=1;verticalAlign=top;shape=mxgraph.electrical.opto_electronics.led_1;pointerEvents=1;fontSize=11;" vertex="1" parent="1">
                    <mxGeometry x="560" y="200" width="100" height="65" as="geometry"/>
                </mxCell>
                <mxCell id="39" value="" style="edgeStyle=none;html=1;fontSize=11;endArrow=none;endFill=0;" edge="1" parent="1" source="33" target="38">
                    <mxGeometry relative="1" as="geometry"/>
                </mxCell>
                <mxCell id="33" value="" style="verticalLabelPosition=bottom;shadow=0;dashed=0;align=center;html=1;verticalAlign=top;shape=mxgraph.electrical.opto_electronics.led_1;pointerEvents=1;fontSize=11;" vertex="1" parent="1">
                    <mxGeometry x="560" y="290" width="100" height="65" as="geometry"/>
                </mxCell>
                <mxCell id="38" value="" style="whiteSpace=wrap;html=1;fontSize=11;verticalAlign=top;shadow=0;dashed=0;rotation=90;" vertex="1" parent="1">
                    <mxGeometry x="690" y="350" width="120" height="60" as="geometry"/>
                </mxCell>
            </root>
        </mxGraphModel>
    </diagram>
</mxfile>